<?xml version="1.0" standalone="no"?>
<!DOCTYPE svg PUBLIC "-//W3C//DTD SVG 20010904//EN"
 "http://www.w3.org/TR/2001/REC-SVG-20010904/DTD/svg10.dtd">
<svg version="1.0" xmlns="http://www.w3.org/2000/svg"
 width="574.000000pt" height="435.000000pt" viewBox="0 0 574.000000 435.000000"
 preserveAspectRatio="xMidYMid meet">

<g transform="translate(0.000000,435.000000) scale(0.100000,-0.100000)"
fill="#000000" stroke="none">
<path d="M5044 3636 c-148 -69 -152 -249 -8 -334 33 -19 51 -22 115 -20 65 3
82 7 118 32 95 66 110 197 33 280 -63 67 -167 84 -258 42z m188 -32 c35 -18
65 -58 78 -102 22 -81 -45 -174 -135 -188 -165 -24 -271 151 -158 261 53 52
144 64 215 29z"/>
<path d="M5050 3471 c0 -94 1 -101 20 -101 17 0 20 7 20 40 0 33 3 40 20 40
12 0 31 -16 48 -40 17 -25 35 -39 50 -40 28 0 28 6 -3 46 l-25 33 26 26 c18
19 23 31 18 48 -11 37 -21 41 -99 45 l-75 4 0 -101z m114 63 c9 -3 16 -14 16
-24 0 -21 -19 -30 -61 -30 -26 0 -29 4 -29 30 0 26 3 30 29 30 16 0 36 -3 45
-6z"/>
<path d="M1660 2578 c0 -561 -4 -884 -11 -943 -16 -127 -40 -185 -110 -260
-46 -49 -56 -64 -43 -69 48 -18 339 6 469 39 271 68 412 211 481 484 36 142
45 364 42 1021 l-3 575 -412 3 -413 2 0 -852z"/>
<path d="M3126 3383 c-8 -27 -36 -118 -60 -204 -40 -138 -44 -161 -35 -195 13
-49 123 -438 284 -1004 68 -239 138 -488 156 -552 l33 -118 384 0 c360 0 383
1 378 18 -3 9 -30 105 -60 212 -30 107 -82 294 -116 415 -34 121 -73 258 -85
305 -13 47 -53 189 -88 315 -101 356 -237 844 -237 850 0 3 -121 5 -269 5
l-269 0 -16 -47z"/>
<path d="M4120 3405 c-5 -14 -33 -106 -61 -204 l-52 -179 63 -224 c112 -400
156 -556 285 -1013 69 -247 128 -456 130 -462 3 -10 89 -13 385 -13 209 0 380
3 380 7 0 7 -103 379 -215 778 -29 105 -81 289 -115 410 -34 121 -88 315 -120
430 -33 116 -77 273 -98 350 l-39 140 -267 3 -266 2 -10 -25z"/>
<path d="M2726 2004 c-104 -362 -191 -667 -194 -676 -4 -17 19 -18 383 -18
309 0 386 3 382 13 -4 12 -76 265 -258 912 -50 176 -98 344 -108 374 l-17 55
-188 -660z"/>
<path d="M1073 2036 c-193 -63 -307 -259 -259 -446 29 -114 103 -202 212 -252
40 -19 66 -23 144 -23 82 0 103 4 152 27 238 111 288 425 96 604 -94 88 -238
125 -345 90z"/>
<path d="M792 1132 c-9 -6 -12 -40 -10 -133 3 -116 4 -124 23 -124 17 0 21 8
25 50 l5 50 63 5 c51 4 68 10 83 29 25 31 24 64 -4 97 -21 24 -32 27 -98 31
-41 2 -80 0 -87 -5z m129 -42 c11 -6 19 -21 19 -35 0 -20 -7 -26 -41 -35 -23
-6 -47 -9 -55 -6 -14 5 -20 67 -7 79 10 11 62 8 84 -3z"/>
<path d="M1057 1133 c-4 -3 -7 -59 -7 -123 0 -89 3 -120 14 -129 9 -8 45 -11
97 -9 70 3 84 6 87 20 3 14 -7 18 -65 20 l-68 3 -3 99 c-1 55 -8 106 -14 113
-11 14 -31 17 -41 6z"/>
<path d="M1353 1083 c-55 -124 -80 -189 -76 -200 9 -25 39 -13 56 22 17 36 18
36 74 33 51 -3 58 -6 73 -33 19 -33 47 -44 56 -21 5 13 -76 212 -99 244 -5 6
-20 12 -34 12 -20 0 -29 -10 -50 -57z m79 -57 c9 -24 14 -47 11 -50 -9 -9 -71
-7 -77 2 -6 10 30 92 41 92 5 0 16 -20 25 -44z"/>
<path d="M1623 1128 c-27 -13 -43 -55 -32 -84 5 -14 26 -28 56 -39 26 -9 60
-22 76 -27 30 -12 38 -52 11 -62 -40 -15 -78 -6 -104 26 -16 19 -31 28 -38 24
-20 -12 -14 -41 14 -67 22 -20 36 -24 91 -24 59 0 67 3 89 28 48 56 23 98 -76
128 -54 16 -70 25 -70 40 0 42 78 49 100 9 13 -25 50 -27 50 -2 0 23 -10 37
-37 51 -27 14 -100 13 -130 -1z"/>
<path d="M1840 1125 c-10 -12 -8 -16 15 -25 15 -6 32 -10 39 -9 33 4 35 -2 38
-108 3 -100 4 -108 23 -108 19 0 20 8 23 103 3 99 4 103 28 112 13 5 28 9 32
9 23 -4 42 3 42 15 0 21 -23 26 -130 26 -74 0 -101 -4 -110 -15z"/>
<path d="M2163 1120 c-86 -52 -82 -189 6 -235 38 -19 104 -19 145 0 43 20 66
63 66 120 0 57 -23 100 -66 120 -45 21 -112 19 -151 -5z m134 -44 c23 -20 28
-32 28 -69 0 -59 -33 -97 -82 -97 -51 0 -83 37 -83 95 0 85 75 124 137 71z"/>
<path d="M2453 1133 c-10 -3 -13 -39 -13 -129 0 -104 3 -126 16 -131 22 -8 31
6 38 57 3 25 5 46 5 48 1 1 26 2 56 2 46 0 60 4 80 25 44 43 25 108 -34 125
-37 10 -126 12 -148 3z m132 -46 c30 -23 13 -63 -31 -71 -53 -10 -77 18 -58
68 8 20 63 21 89 3z"/>
<path d="M2764 1132 c-15 -9 -104 -217 -104 -242 0 -35 39 -25 56 15 14 34 15
35 72 35 57 0 59 -1 75 -36 18 -37 49 -44 55 -13 3 16 -80 212 -100 237 -12
13 -37 16 -54 4z m46 -98 c11 -25 20 -50 20 -55 0 -5 -18 -9 -40 -9 -25 0 -40
5 -40 12 0 15 31 98 37 98 2 0 13 -21 23 -46z"/>
<path d="M3013 1120 c-86 -52 -82 -189 6 -235 17 -8 51 -15 77 -15 39 0 51 5
80 34 38 38 41 48 18 67 -15 12 -18 11 -28 -5 -23 -40 -46 -56 -80 -56 -46 0
-76 37 -76 95 0 90 82 129 138 65 40 -45 72 -34 49 17 -22 50 -126 69 -184 33z"/>
<path d="M3269 1128 c-6 -80 -8 -181 -3 -216 5 -37 8 -43 27 -40 18 2 23 11
25 45 3 39 28 73 54 73 4 0 26 -27 50 -60 25 -36 49 -60 60 -60 36 0 30 29
-16 92 -25 34 -46 67 -46 72 0 6 16 24 35 39 37 29 47 67 19 67 -9 0 -46 -28
-83 -62 l-66 -62 -5 59 c-4 53 -8 60 -27 63 -14 2 -23 -2 -24 -10z"/>
<path d="M3681 1126 c-8 -9 -11 -54 -9 -132 3 -107 5 -119 22 -122 25 -5 36
14 36 66 l0 42 54 0 c67 0 106 26 106 71 0 45 -16 67 -58 79 -54 15 -137 13
-151 -4z m139 -40 c22 -28 8 -60 -30 -68 -50 -11 -60 -4 -60 42 0 40 0 40 39
40 21 0 44 -6 51 -14z"/>
<path d="M3934 1125 c-7 -16 54 -187 83 -232 16 -27 44 -30 65 -5 28 32 102
232 90 244 -16 16 -41 2 -53 -29 -48 -131 -63 -163 -70 -156 -5 5 -23 49 -42
98 -32 89 -59 118 -73 80z"/>
<path d="M4213 1133 c-22 -8 -14 -33 10 -35 12 0 27 -2 32 -3 6 -2 16 -3 23
-4 9 -1 12 -28 12 -98 0 -105 7 -127 36 -121 17 3 20 16 24 112 l5 109 38 3
c44 2 52 7 44 29 -5 12 -25 15 -109 14 -57 0 -109 -3 -115 -6z"/>
<path d="M4590 1120 c-18 -33 -9 -228 10 -240 17 -11 149 -14 174 -4 9 3 16
12 16 20 0 9 -20 14 -72 16 l-73 3 -5 110 c-4 92 -8 110 -22 113 -9 2 -22 -6
-28 -18z"/>
<path d="M4760 1125 c-10 -12 -8 -16 14 -25 15 -5 30 -9 34 -9 40 6 42 2 42
-106 0 -87 3 -107 16 -112 27 -10 34 11 35 110 1 95 12 129 38 113 15 -10 61
5 61 19 0 20 -25 25 -130 25 -74 0 -101 -4 -110 -15z"/>
<path d="M5052 1128 c-8 -8 -12 -51 -12 -129 0 -133 -2 -129 83 -128 113 1
160 40 160 134 0 67 -23 104 -74 122 -45 16 -142 16 -157 1z m158 -53 c10 -10
15 -35 15 -71 0 -68 -24 -94 -86 -94 l-39 0 0 96 0 97 47 -7 c26 -3 54 -13 63
-21z"/>
</g>
</svg>
